<?xml version="1.0" encoding="UTF-8" standalone="no"?>
<!DOCTYPE svg PUBLIC "-//W3C//DTD SVG 1.1//EN" "http://www.w3.org/Graphics/SVG/1.1/DTD/svg11.dtd">
<svg width="100%" height="100%" viewBox="0 0 4590 2289" version="1.1" xmlns="http://www.w3.org/2000/svg" xmlns:xlink="http://www.w3.org/1999/xlink" xml:space="preserve" xmlns:serif="http://www.serif.com/" style="fill-rule:evenodd;clip-rule:evenodd;stroke-linejoin:round;stroke-miterlimit:2;">
    <g id="Artboard1" transform="matrix(2.043574,0,0,1,-3230.378903,-685.377295)">
        <rect x="1580.75" y="685.377" width="2245.942" height="2288.173" style="fill:none;"/>
        <clipPath id="_clip1">
            <rect x="1580.75" y="685.377" width="2245.942" height="2288.173"/>
        </clipPath>
        <g clip-path="url(#_clip1)">
            <g transform="matrix(1.391944,0,0,1,-619.565574,0)">
                <g transform="matrix(0.351551,0,0,1,1025.299772,0.377295)">
                    <path d="M2928.14,1794.819C2951.306,1803.399 2966.683,1825.493 2966.683,1850.197L2966.683,2914.494C2966.683,2932.183 2958.754,2948.94 2945.077,2960.157C2931.399,2971.374 2913.414,2975.87 2896.068,2972.407C2784.576,2950.152 2566.025,2906.528 2425.502,2878.478C2349.765,2863.361 2295.237,2796.872 2295.237,2719.641L2295.237,1645.243C2295.237,1625.916 2304.694,1607.812 2320.557,1596.772C2336.419,1585.731 2356.681,1583.152 2374.804,1589.864C2519.651,1643.516 2821.288,1755.241 2928.14,1794.819Z" style="fill:rgb(105,170,149);"/>
                </g>
                <g transform="matrix(0.351551,0,0,1,1025.299772,0.377295)">
                    <path d="M1621.443,1687.442C1613.321,1692.672 1602.99,1693.049 1594.508,1688.423C1586.027,1683.796 1580.75,1674.907 1580.75,1665.246L1580.75,1267.339C1580.75,1247.261 1590.95,1228.559 1607.831,1217.689L2155.104,865.25C2170.724,855.191 2190.168,853.069 2207.59,859.522L2874.058,1106.381C2892.461,1113.197 2913.048,1110.426 2928.994,1098.987L3356.94,791.982L3304.617,723.317C3299.015,715.965 3298.215,706.021 3302.571,697.868C3306.927,689.715 3315.637,684.852 3324.863,685.422L3777.308,713.389C3784.155,713.812 3790.481,717.192 3794.639,722.649C3798.797,728.106 3800.378,735.101 3798.969,741.816L3705.901,1185.467C3704.004,1194.514 3697.004,1201.622 3687.988,1203.659C3678.972,1205.696 3669.596,1202.287 3663.994,1194.935L3601.15,1112.464L2935.126,1590.263C2919.181,1601.703 2898.594,1604.473 2880.191,1597.657L2197.254,1344.699C2179.831,1338.245 2160.388,1340.367 2144.767,1350.427L1621.443,1687.442Z" style="fill:rgb(105,170,149);"/>
                </g>
                <g transform="matrix(0.351551,0,0,1,1025.299772,0.377295)">
                    <path d="M2243.484,1361.822C2243.484,1361.822 1853.425,1613.198 1671.795,1730.25C1653.627,1741.959 1630.513,1742.807 1611.536,1732.46C1592.558,1722.113 1580.75,1702.225 1580.75,1680.61L1580.75,1665.246C1580.75,1674.907 1586.027,1683.796 1594.508,1688.423C1602.99,1693.049 1613.321,1692.672 1621.443,1687.442L2144.767,1350.427C2160.388,1340.367 2179.831,1338.245 2197.254,1344.699L2243.484,1361.822Z" style="fill:rgb(28,100,76);"/>
                </g>
                <g transform="matrix(0.351551,0,0,1,1025.299772,0.377295)">
                    <path d="M3641.764,1165.763C3641.764,1165.763 3132.514,1531.696 3011.665,1618.535C2995.722,1629.991 2975.128,1632.775 2956.716,1625.964C2925.37,1614.369 2880.238,1597.675 2880.238,1597.675C2898.629,1604.469 2919.194,1601.693 2935.126,1590.263L3601.15,1112.464L3641.764,1165.763Z" style="fill:rgb(28,100,76);"/>
                </g>
                <g transform="matrix(0.351551,0,0,1,1025.299772,0.377295)">
                    <path d="M3794.639,722.649C3794.639,722.649 3804.971,736.211 3814.613,748.868C3824.995,762.497 3828.947,779.962 3825.444,796.732C3810.899,866.351 3770.926,1057.692 3746.137,1176.351C3742.431,1194.091 3728.714,1208.037 3711.038,1212.036C3693.362,1216.036 3674.978,1209.354 3663.996,1194.937C3663.994,1194.936 3663.994,1194.935 3663.994,1194.935C3669.596,1202.287 3678.972,1205.696 3687.988,1203.659C3697.004,1201.622 3704.004,1194.514 3705.901,1185.467L3798.969,741.816C3800.378,735.101 3798.797,728.106 3794.639,722.649Z" style="fill:rgb(28,100,76);"/>
                </g>
            </g>
            <g transform="matrix(1.391944,0,0,1,-572.176495,21.520686)">
                <g transform="matrix(2.432978,0,0,6.920704,1548.064127,711.303323)">
                    <path d="M321.64,235.14C321.69,236.44 320.77,237.59 319.51,237.86L266.76,249.44C269,250.6 271.56,251.26 274.26,251.26C278.56,251.26 283.12,249.62 286.32,246.94C287.54,245.92 289.34,246.07 290.24,247.39L304.72,268.73C305.47,269.85 305.32,271.37 304.3,272.25C295.57,279.85 284.19,284.47 271.71,284.47C244.17,284.47 221.85,262.08 221.98,234.51C221.98,234.46 221.99,234.4 221.99,234.35C222,233 222.07,231.64 222.19,230.29C224.34,204.81 245.67,184.78 271.71,184.78C291.02,184.78 307.85,195.06 316.17,212.22C319.39,218.9 321.36,226.59 321.65,235.14L321.64,235.14ZM260.89,223.16C260.59,223.68 261.03,224.3 261.61,224.18L287.4,218.52C287.98,218.38 288.12,217.64 287.63,217.28C285.09,215.47 281.8,214.38 277.91,214.38C270.76,214.38 263.78,218 260.89,223.15L260.89,223.16Z" style="fill:rgb(98,166,144);fill-rule:nonzero;"/>
                </g>
                <g transform="matrix(2.432978,0,0,6.920704,1548.064127,711.303323)">
                    <path d="M332.58,280.4C331.08,280.4 329.86,279.19 329.86,277.68L329.86,141.82C329.86,140.32 331.07,139.1 332.58,139.1L366.23,139.1C367.73,139.1 368.95,140.31 368.95,141.82L368.95,277.68C368.94,279.19 367.73,280.4 366.23,280.4L332.58,280.4Z" style="fill:rgb(98,166,144);fill-rule:nonzero;"/>
                </g>
                <g transform="matrix(2.432978,0,0,6.920704,1548.064127,711.303323)">
                    <path d="M462.56,186.9L497.16,186.9C498.67,186.9 499.88,188.12 499.88,189.62L499.88,191.35C499.88,191.72 499.81,192.07 499.66,192.41L425.68,279.58C425.24,280.57 424.27,281.23 423.18,281.23L387.68,281.23C386.59,281.23 385.6,280.59 385.18,279.58L385.4,192.4C385.25,192.07 385.18,191.71 385.18,191.34L385.18,189.61C385.18,188.1 386.4,186.89 387.9,186.89L422.49,186.89C423.56,186.89 424.54,187.53 424.98,188.52L424.93,229.8L460.07,188.52C460.5,187.54 461.48,186.9 462.56,186.9Z" style="fill:rgb(98,166,144);fill-rule:nonzero;"/>
                </g>
                <g transform="matrix(2.432978,0,0,6.920704,1548.064127,711.303323)">
                    <path d="M513.84,174.43C512.34,174.43 511.12,173.22 511.12,171.71L511.12,143.89C511.12,142.38 512.33,141.17 513.84,141.17L547.49,141.17C548.99,141.17 550.21,142.38 550.21,143.89L550.21,171.72C550.2,173.22 548.99,174.43 547.49,174.43L513.84,174.43ZM513.84,280.4C512.34,280.4 511.12,279.19 511.12,277.68L511.12,189.62C511.12,188.12 512.33,186.9 513.84,186.9L547.49,186.9C548.99,186.9 550.21,188.11 550.21,189.62L550.21,277.68C550.2,279.19 548.99,280.4 547.49,280.4L513.84,280.4Z" style="fill:rgb(98,166,144);fill-rule:nonzero;"/>
                </g>
                <g transform="matrix(2.432978,0,0,6.920704,1548.064127,711.303323)">
                    <path d="M659.58,186.89C661.08,186.89 662.29,188.1 662.29,189.6L662.29,279.7C662.29,281.2 661.08,282.41 659.58,282.41L623.22,282.41L623.22,282.21C618.5,283.69 613.5,284.49 608.29,284.49C578.96,284.49 555.55,259.16 558.73,229.18C561.23,205.7 580.54,186.92 604.07,184.97C610.79,184.41 617.24,185.2 623.23,187.08L623.23,186.9L659.57,186.9L659.58,186.89ZM622.26,234.64C622.26,226.93 616.01,220.68 608.3,220.68C600.59,220.68 594.34,226.93 594.34,234.64C594.34,242.35 600.59,248.6 608.3,248.6C616.01,248.6 622.26,242.35 622.26,234.64Z" style="fill:rgb(98,166,144);fill-rule:nonzero;"/>
                </g>
            </g>
        </g>
    </g>
</svg>
