<?xml version="1.0" encoding="UTF-8" standalone="no"?>
<!DOCTYPE svg PUBLIC "-//W3C//DTD SVG 1.1//EN" "http://www.w3.org/Graphics/SVG/1.1/DTD/svg11.dtd">
<svg width="100%" height="100%" viewBox="0 0 2253 2289" version="1.1" xmlns="http://www.w3.org/2000/svg" xmlns:xlink="http://www.w3.org/1999/xlink" xml:space="preserve" xmlns:serif="http://www.serif.com/" style="fill-rule:evenodd;clip-rule:evenodd;stroke-linejoin:round;stroke-miterlimit:2;">
    <g id="Artboard1" transform="matrix(1.00294,0,0,1,-1585.396761,-685.377295)">
        <rect x="1580.75" y="685.377" width="2245.942" height="2288.173" style="fill:none;"/>
        <clipPath id="_clip1">
            <rect x="1580.75" y="685.377" width="2245.942" height="2288.173"/>
        </clipPath>
        <g clip-path="url(#_clip1)">
            <g transform="matrix(2.836203,0,0,1,-2902.577285,0)">
                <g transform="matrix(0.351551,0,0,1,1025.299772,0.377295)">
                    <path d="M2928.14,1794.819C2951.306,1803.399 2966.683,1825.493 2966.683,1850.197L2966.683,2914.494C2966.683,2932.183 2958.754,2948.94 2945.077,2960.157C2931.399,2971.374 2913.414,2975.87 2896.068,2972.407C2784.576,2950.152 2566.025,2906.528 2425.502,2878.478C2349.765,2863.361 2295.237,2796.872 2295.237,2719.641L2295.237,1645.243C2295.237,1625.916 2304.694,1607.812 2320.557,1596.772C2336.419,1585.731 2356.681,1583.152 2374.804,1589.864C2519.651,1643.516 2821.288,1755.241 2928.14,1794.819Z" style="fill:rgb(105,170,149);"/>
                </g>
                <g transform="matrix(0.351551,0,0,1,1025.299772,0.377295)">
                    <path d="M1621.443,1687.442C1613.321,1692.672 1602.99,1693.049 1594.508,1688.423C1586.027,1683.796 1580.75,1674.907 1580.75,1665.246L1580.75,1267.339C1580.75,1247.261 1590.95,1228.559 1607.831,1217.689L2155.104,865.25C2170.724,855.191 2190.168,853.069 2207.59,859.522L2874.058,1106.381C2892.461,1113.197 2913.048,1110.426 2928.994,1098.987L3356.94,791.982L3304.617,723.317C3299.015,715.965 3298.215,706.021 3302.571,697.868C3306.927,689.715 3315.637,684.852 3324.863,685.422L3777.308,713.389C3784.155,713.812 3790.481,717.192 3794.639,722.649C3798.797,728.106 3800.378,735.101 3798.969,741.816L3705.901,1185.467C3704.004,1194.514 3697.004,1201.622 3687.988,1203.659C3678.972,1205.696 3669.596,1202.287 3663.994,1194.935L3601.15,1112.464L2935.126,1590.263C2919.181,1601.703 2898.594,1604.473 2880.191,1597.657L2197.254,1344.699C2179.831,1338.245 2160.388,1340.367 2144.767,1350.427L1621.443,1687.442Z" style="fill:rgb(105,170,149);"/>
                </g>
                <g transform="matrix(0.351551,0,0,1,1025.299772,0.377295)">
                    <path d="M2243.484,1361.822C2243.484,1361.822 1853.425,1613.198 1671.795,1730.25C1653.627,1741.959 1630.513,1742.807 1611.536,1732.46C1592.558,1722.113 1580.75,1702.225 1580.75,1680.61C1580.75,1671.249 1580.75,1665.246 1580.75,1665.246C1580.75,1674.907 1586.027,1683.796 1594.508,1688.423C1602.99,1693.049 1613.321,1692.672 1621.443,1687.442L2144.767,1350.427C2160.388,1340.367 2179.831,1338.245 2197.254,1344.699L2243.484,1361.822Z" style="fill:rgb(28,100,76);"/>
                </g>
                <g transform="matrix(0.351551,0,0,1,1025.299772,0.377295)">
                    <path d="M3641.764,1165.763C3641.764,1165.763 3132.514,1531.696 3011.665,1618.535C2995.722,1629.991 2975.128,1632.775 2956.716,1625.964C2925.37,1614.369 2880.238,1597.675 2880.238,1597.675C2898.629,1604.469 2919.194,1601.693 2935.126,1590.263L3601.15,1112.464L3641.764,1165.763Z" style="fill:rgb(28,100,76);"/>
                </g>
                <g transform="matrix(0.351551,0,0,1,1025.299772,0.377295)">
                    <path d="M3794.639,722.649C3794.639,722.649 3804.971,736.211 3814.613,748.868C3824.995,762.497 3828.947,779.962 3825.444,796.732C3810.899,866.351 3770.926,1057.692 3746.137,1176.351C3742.431,1194.091 3728.714,1208.037 3711.038,1212.036C3693.362,1216.036 3674.978,1209.354 3663.996,1194.937C3663.994,1194.936 3663.994,1194.935 3663.994,1194.935C3669.596,1202.287 3678.972,1205.696 3687.988,1203.659C3697.004,1201.622 3704.004,1194.514 3705.901,1185.467L3798.969,741.816C3800.378,735.101 3798.797,728.106 3794.639,722.649Z" style="fill:rgb(28,100,76);"/>
                </g>
            </g>
        </g>
    </g>
</svg>
