<?xml version="1.0" encoding="UTF-8" standalone="no"?>
<!-- Created with Inkscape (http://www.inkscape.org/) -->

<svg
   width="178.00316mm"
   height="97.265556mm"
   viewBox="0 0 178.00316 97.265556"
   version="1.1"
   id="svg1"
   xml:space="preserve"
   inkscape:version="1.4.2 (f4327f4, 2025-05-13)"
   sodipodi:docname="404.svg"
   xmlns:inkscape="http://www.inkscape.org/namespaces/inkscape"
   xmlns:sodipodi="http://sodipodi.sourceforge.net/DTD/sodipodi-0.dtd"
   xmlns="http://www.w3.org/2000/svg"
   xmlns:svg="http://www.w3.org/2000/svg"><sodipodi:namedview
     id="namedview1"
     pagecolor="#ffffff"
     bordercolor="#000000"
     borderopacity="0.25"
     inkscape:showpageshadow="2"
     inkscape:pageopacity="0.0"
     inkscape:pagecheckerboard="0"
     inkscape:deskcolor="#d1d1d1"
     inkscape:document-units="mm"
     inkscape:zoom="0.74742565"
     inkscape:cx="271.59892"
     inkscape:cy="92.985837"
     inkscape:window-width="1366"
     inkscape:window-height="745"
     inkscape:window-x="1912"
     inkscape:window-y="-8"
     inkscape:window-maximized="1"
     inkscape:current-layer="layer1" /><defs
     id="defs1"><rect
       x="409.40527"
       y="495.03253"
       width="355.88824"
       height="206.04056"
       id="rect1" /><rect
       x="409.40527"
       y="495.03253"
       width="354.55032"
       height="160.55109"
       id="rect8" /></defs><g
     inkscape:label="Layer 1"
     inkscape:groupmode="layer"
     id="layer1"
     transform="translate(-8.0655054,-95.722001)"><g
       style="fill:none"
       id="g1"
       transform="matrix(3.9221345,0,0,3.5932589,1.20177,111.24092)"><path
         opacity="0.4"
         d="M 2.5,12.4098 V 7.83986 c 0,-1.19 0.73,-2.25004 1.84,-2.67004 l 7.94,-3 c 1.24,-0.47 2.57,0.45003 2.57,1.78003 v 3.79998"
         stroke="#292d32"
         stroke-width="1.5"
         stroke-linecap="round"
         stroke-linejoin="round"
         id="path2"
         style="stroke:#e2e4e7;stroke-opacity:1" /><path
         d="m 18.04,13.55 c -0.42,0.41 -0.66,1 -0.6,1.63 0.09,1.08 1.08,1.87 2.16,1.87 h 1.9 v 1.19 C 21.5,20.31 19.81,22 17.74,22 H 6.26 C 4.19,22 2.5,20.31 2.5,18.24 V 11.51 C 2.5,9.44001 4.19,7.75 6.26,7.75 h 11.48 c 2.07,0 3.76,1.69001 3.76,3.76 v 1.44 h -2.02 c -0.56,0 -1.07,0.22 -1.44,0.6 z"
         stroke="#292d32"
         stroke-width="1.5"
         stroke-linecap="round"
         stroke-linejoin="round"
         id="path1"
         style="fill:none;stroke:#d5d5d5;stroke-opacity:1" /><path
         d="m 22.5608,13.9702 v 2.06 c 0,0.55 -0.44,1 -1,1.02 h -1.96 c -1.08,0 -2.07,-0.79 -2.16,-1.87 -0.06,-0.63 0.18,-1.22 0.6,-1.63 0.37,-0.38 0.88,-0.6 1.44,-0.6 h 2.08 c 0.56,0.02 1,0.47 1,1.02 z"
         stroke="#292d32"
         stroke-width="1.5"
         stroke-linecap="round"
         stroke-linejoin="round"
         id="path3"
         style="stroke:#d5d5d5;stroke-opacity:1" /><path
         opacity="0.4"
         d="m 7,12 h 7"
         stroke="#292d32"
         stroke-width="1.5"
         stroke-linecap="round"
         stroke-linejoin="round"
         id="path4"
         style="stroke:#e2e4e7;stroke-opacity:1" /></g><path
       style="opacity:0.72;fill:none;fill-opacity:1;stroke:#c8c8c8;stroke-width:1.165;stroke-dasharray:5.825;stroke-dashoffset:0;stroke-opacity:1"
       d="m 44.603098,131.33134 c 0,0 2.326331,-11.02434 44.603097,-14.86769 19.469605,-1.76996 27.257455,-12.74375 27.257455,-12.74375"
       id="path5"
       sodipodi:nodetypes="csc" /><path
       class="puchipuchi_een"
       d="m 121.59999,104.46641 c 0.11968,-0.13153 0.12507,-0.32094 0.0125,-0.42333 l -0.1215,-0.11055 c 0.33114,-0.59167 0.57273,-1.19875 0.74565,-1.77787 l 0.14709,-0.0183 0.32334,0.29419 c 0.11253,0.10239 0.3006,0.0792 0.42027,-0.0524 0.11967,-0.13153 0.12508,-0.32094 0.0125,-0.42334 l -0.40773,-0.37098 c -0.054,-0.0492 -0.12872,-0.0715 -0.20754,-0.0614 l -0.12524,0.0156 c 0.0934,-0.4024 0.15968,-0.78245 0.20222,-1.11589 l 0.796,-0.0992 c 0.0319,-0.004 0.0639,-0.0132 0.0946,-0.0269 l 0.63668,-0.29019 c 0.15728,-0.0717 0.24653,-0.251753 0.19928,-0.402106 -0.0479,-0.15009 -0.21326,-0.21408 -0.37032,-0.142616 l -0.59019,0.269009 -0.7069,0.0881 c 0.0192,-0.273809 0.0246,-0.484945 0.0248,-0.61867 0.32426,-0.06886 0.63567,-0.375903 0.75083,-0.779343 0.0496,-0.173616 0.0533,-0.34321 0.0217,-0.492805 0.0864,-0.464802 -0.0328,-0.929732 -0.37157,-1.238016 -0.33883,-0.308289 -0.81292,-0.383141 -1.26773,-0.253099 -0.15211,-0.01712 -0.32081,0.0024 -0.48856,0.06804 -0.39102,0.152884 -0.66694,0.491772 -0.70517,0.820874 -0.13312,0.01279 -0.34281,0.03807 -0.61359,0.08297 l 0.0213,-0.711861 0.21223,-0.612919 c 0.0562,-0.163242 -0.0227,-0.321932 -0.17664,-0.355476 -0.15438,-0.03265 -0.32519,0.07277 -0.38174,0.236085 l -0.22895,0.661177 c -0.0109,0.03173 -0.0172,0.06431 -0.0179,0.09672 l -0.0237,0.801798 c -0.32794,0.07333 -0.69985,0.175331 -1.09188,0.306413 l 0.004,-0.126155 c 0.002,-0.07938 -0.0267,-0.151676 -0.0807,-0.200829 l -0.40773,-0.370984 c -0.11253,-0.102389 -0.3006,-0.07918 -0.42028,0.05236 -0.11967,0.131524 -0.12507,0.320944 -0.0125,0.423333 l 0.32333,0.294191 -0.005,0.148166 c -0.56025,0.226689 -1.14168,0.524557 -1.69973,0.909765 l -0.12151,-0.110534 c -0.11254,-0.102395 -0.3006,-0.07918 -0.42027,0.05235 -0.11968,0.131529 -0.12508,0.320943 -0.0125,0.423338 l 0.0336,0.03059 c -0.24449,0.202295 -0.4824,0.418831 -0.70466,0.663094 -0.94375,1.03724 -0.43446,1.648 -0.25587,1.81049 0.31905,0.2903 0.88248,0.43732 1.55594,0.43231 0.0239,0.46646 0.24523,0.9022 0.71024,1.3253 0.46502,0.42312 0.91968,0.60246 1.38631,0.5823 0.0584,0.67093 0.25787,1.21801 0.57691,1.5083 0.17859,0.1625 0.83461,0.612 1.77836,-0.42524 0.22224,-0.24426 0.41536,-0.50156 0.59378,-0.76397 l 0.0336,0.0306 c 0.11253,0.10238 0.3006,0.0792 0.42027,-0.0524 z m -4.3646,-2.93868 c -0.96646,0.22794 -1.89494,0.15611 -2.25802,-0.17424 -0.0875,-0.0796 -0.3535,-0.32164 0.2308,-0.96382 1.80505,-1.983859 4.71579,-2.393896 5.38236,-2.463433 0.0828,0.130954 0.19914,0.380305 0.083,0.618524 -0.5542,1.124306 -2.4183,2.741429 -3.43815,2.982969 z m 4.36823,-3.905258 c -0.30818,0.120426 -0.6259,0.03262 -0.68119,-0.192885 -0.0564,-0.231277 0.15696,-0.521033 0.47616,-0.645789 0.23024,-0.09005 0.46378,-0.0719 0.59425,0.04682 0.0439,0.0399 0.0731,0.08916 0.0872,0.145814 0.0562,0.231518 -0.15718,0.52128 -0.47638,0.64603 z m 1.29163,0.09618 c 0.058,0.0083 0.10955,0.03319 0.15338,0.07306 0.13048,0.118718 0.17075,0.349258 0.10257,0.587199 -0.0939,0.329293 -0.3623,0.56897 -0.59785,0.534625 -0.22951,-0.03404 -0.34684,-0.342085 -0.25618,-0.660004 0.0941,-0.329535 0.36251,-0.569213 0.59807,-0.534867 z m -3.68848,7.483048 c -0.36308,-0.33036 -0.52202,-1.24796 -0.38611,-2.23158 0.14444,-1.03807 1.5788,-3.046183 2.64592,-3.70379 0.22622,-0.138059 0.4856,-0.04552 0.62359,0.02439 -0.006,0.670157 -0.14054,3.60659 -1.94559,5.59044 -0.5843,0.64218 -0.85035,0.40011 -0.93781,0.32054 z"
       id="path1-4"
       style="fill:#c6c6c6;fill-opacity:1;stroke-width:0.297707"
       inkscape:transform-center-x="-0.26894962"
       inkscape:transform-center-y="-0.26898177" />
	   <defs>
        <style type="text/css">
            @font-face {
            font-family: 'Karla';
            src: url('/fonts/Karla/Karla-VariableFont_wght.ttf') format('truetype');
            font-weight: 100 900;
            font-style: normal;
            }
        </style>
       </defs>
	   <text
       xml:space="preserve"
       transform="matrix(0.39667773,0,0,0.39667773,-45.47961,-63.92775)"
       id="text1"
       style="font-style:normal;font-variant:normal;font-weight:normal;font-stretch:normal;font-size:96px;font-family:Karla;-inkscape-font-specification:Karla;text-align:start;writing-mode:lr-tb;direction:ltr;white-space:pre;shape-inside:url(#rect1);opacity:0.72;fill:#ffffff;fill-opacity:1;stroke:#ffffff;stroke-width:4.40315;stroke-dasharray:none;stroke-opacity:1"><tspan
         x="409.40625"
         y="582.33859"
         id="tspan1">404</tspan></text><text
       xml:space="preserve"
       style="font-style:normal;font-variant:normal;font-weight:normal;font-stretch:normal;font-size:10.4968px;font-family:Karla;-inkscape-font-specification:Karla;text-align:start;writing-mode:lr-tb;direction:ltr;text-anchor:start;opacity:0.72;fill:#9e9e9e;fill-opacity:1;stroke:#9d9d9d;stroke-width:0.481447;stroke-dasharray:none;stroke-opacity:1"
       x="112.28738"
       y="183.4823"
       id="text3"><tspan
         sodipodi:role="line"
         id="tspan3"
         style="fill:#9e9e9e;fill-opacity:1;stroke:#9d9d9d;stroke-width:0.481447;stroke-opacity:1"
         x="112.28738"
         y="183.4823">Page Not Found</tspan></text></g><style
     type="text/css"
     id="style1">
	.puchipuchi_een{fill:#111918;}
</style></svg>
